<svg xmlns="http://www.w3.org/2000/svg" xmlns:xlink="http://www.w3.org/1999/xlink" version="1.1" width="256" height="256" viewBox="0 0 256 256" xml:space="preserve">
<desc>Created with Fabric.js 1.7.22</desc>
<defs>
</defs>
<g transform="translate(128 128) scale(0.72 0.72)" style="">
	<g style="stroke: none; stroke-width: 0; stroke-dasharray: none; stroke-linecap: butt; stroke-linejoin: miter; stroke-miterlimit: 10; fill: none; fill-rule: nonzero; opacity: 1;" transform="translate(-175.05 -175.05000000000004) scale(3.89 3.89)" >
	<path d="M 44.759 63.847 L 56.954 90 l 9.909 -9.079 l 13.325 -1.755 L 68.323 53.721 c -9.609 -0.082 -17.439 3.046 -23.082 10.126" style="stroke: none; stroke-width: 1; stroke-dasharray: none; stroke-linecap: butt; stroke-linejoin: miter; stroke-miterlimit: 10; fill: rgb(237,99,98); fill-rule: nonzero; opacity: 1;" transform=" matrix(1 0 0 1 0 0) " stroke-linecap="round" />
	<path d="M 45.241 63.847 L 33.046 90 l -9.909 -9.079 L 9.812 79.166 l 11.865 -25.445 C 33.52 52.826 41.539 56.026 45.241 63.847 z" style="stroke: none; stroke-width: 1; stroke-dasharray: none; stroke-linecap: butt; stroke-linejoin: miter; stroke-miterlimit: 10; fill: rgb(233,84,84); fill-rule: nonzero; opacity: 1;" transform=" matrix(1 0 0 1 0 0) " stroke-linecap="round" />
	<path d="M 45 63.847 c 17.631 0 31.923 -14.293 31.923 -31.923 S 62.631 0 45 0 C 34.483 21.782 33.645 43.104 45 63.847 z" style="stroke: none; stroke-width: 1; stroke-dasharray: none; stroke-linecap: butt; stroke-linejoin: miter; stroke-miterlimit: 10; fill: rgb(244,218,102); fill-rule: nonzero; opacity: 1;" transform=" matrix(1 0 0 1 0 0) " stroke-linecap="round" />
	<path d="M 45 63.847 c -17.631 0 -31.923 -14.293 -31.923 -31.923 S 27.369 0 45 0 v 63.814" style="stroke: none; stroke-width: 1; stroke-dasharray: none; stroke-linecap: butt; stroke-linejoin: miter; stroke-miterlimit: 10; fill: rgb(253,188,75); fill-rule: nonzero; opacity: 1;" transform=" matrix(1 0 0 1 0 0) " stroke-linecap="round" />
	<path d="M 38.778 54.411 c -0.092 0 -0.186 -0.013 -0.279 -0.039 C 26.122 50.786 18.967 37.8 22.552 25.422 c 0.153 -0.531 0.707 -0.836 1.239 -0.682 c 0.53 0.153 0.836 0.708 0.682 1.239 c -3.277 11.318 3.264 23.193 14.583 26.471 c 0.53 0.154 0.836 0.709 0.682 1.239 C 39.611 54.127 39.211 54.411 38.778 54.411 z" style="stroke: none; stroke-width: 1; stroke-dasharray: none; stroke-linecap: butt; stroke-linejoin: miter; stroke-miterlimit: 10; fill: rgb(255,0,0); fill-rule: nonzero; opacity: 1;" transform=" matrix(1 0 0 1 0 0) " stroke-linecap="round" />
	<path d="M 66.487 39.146 c -0.092 0 -0.186 -0.013 -0.278 -0.04 c -0.53 -0.154 -0.836 -0.708 -0.683 -1.239 c 1.589 -5.483 0.946 -11.256 -1.808 -16.256 c -2.755 -5 -7.291 -8.628 -12.774 -10.216 c -0.53 -0.153 -0.836 -0.708 -0.683 -1.239 c 0.154 -0.53 0.708 -0.835 1.239 -0.682 c 5.996 1.736 10.957 5.704 13.969 11.172 c 3.013 5.468 3.715 11.781 1.979 17.777 C 67.321 38.862 66.922 39.146 66.487 39.146 z" style="stroke: none; stroke-width: 1; stroke-dasharray: none; stroke-linecap: butt; stroke-linejoin: miter; stroke-miterlimit: 10; fill: rgb(255,0,0); fill-rule: nonzero; opacity: 1;" transform=" matrix(1 0 0 1 0 0) " stroke-linecap="round" />
	<path d="M 37.611 39.98 c -0.352 0 -0.686 -0.187 -0.868 -0.503 l -5.132 -8.953 v 8.456 c 0 0.552 -0.448 1 -1 1 s -1 -0.448 -1 -1 V 26.77 c 0 -0.453 0.305 -0.85 0.743 -0.966 c 0.438 -0.118 0.899 0.076 1.125 0.469 l 5.132 8.953 V 26.77 c 0 -0.552 0.448 -1 1 -1 s 1 0.448 1 1 V 38.98 c 0 0.453 -0.305 0.85 -0.743 0.966 C 37.783 39.97 37.696 39.98 37.611 39.98 z" style="stroke: none; stroke-width: 1; stroke-dasharray: none; stroke-linecap: butt; stroke-linejoin: miter; stroke-miterlimit: 10; fill: rgb(255,0,0); fill-rule: nonzero; opacity: 1;" transform=" matrix(1 0 0 1 0 0) " stroke-linecap="round" />
	<path d="M 46.823 37.98 h -4.22 v -4.105 h 2.144 c 0.552 0 1 -0.448 1 -1 s -0.448 -1 -1 -1 h -2.144 V 27.77 h 4.425 c 0.553 0 1 -0.448 1 -1 s -0.447 -1 -1 -1 h -5.22 c -0.036 0 -0.067 0.017 -0.103 0.021 c -0.035 -0.004 -0.066 -0.021 -0.103 -0.021 c -0.552 0 -1 0.448 -1 1 V 38.98 c 0 0.552 0.448 1 1 1 h 5.22 c 0.553 0 1 -0.448 1 -1 S 47.376 37.98 46.823 37.98 z" style="stroke: none; stroke-width: 1; stroke-dasharray: none; stroke-linecap: butt; stroke-linejoin: miter; stroke-miterlimit: 10; fill: rgb(255,0,0); fill-rule: nonzero; opacity: 1;" transform=" matrix(1 0 0 1 0 0) " stroke-linecap="round" />
	<path d="M 59.389 25.77 c -0.553 0 -1 0.448 -1 1 v 9.109 l -2.581 -3.587 c -0.032 -0.045 -0.079 -0.071 -0.117 -0.108 c -0.039 -0.039 -0.065 -0.086 -0.111 -0.119 c -0.011 -0.008 -0.024 -0.009 -0.035 -0.016 c -0.059 -0.039 -0.124 -0.06 -0.189 -0.086 c -0.058 -0.023 -0.112 -0.052 -0.172 -0.064 c -0.058 -0.011 -0.115 -0.004 -0.174 -0.005 c -0.07 -0.001 -0.138 -0.007 -0.207 0.006 c -0.052 0.01 -0.1 0.037 -0.151 0.056 c -0.072 0.027 -0.143 0.05 -0.207 0.094 c -0.01 0.007 -0.023 0.008 -0.033 0.015 c -0.045 0.032 -0.07 0.078 -0.108 0.116 c -0.039 0.039 -0.087 0.065 -0.12 0.112 l -2.581 3.587 V 26.77 c 0 -0.552 -0.447 -1 -1 -1 s -1 0.448 -1 1 V 38.98 c 0 0.434 0.28 0.818 0.693 0.952 c 0.101 0.033 0.204 0.048 0.307 0.048 c 0.315 0 0.62 -0.15 0.812 -0.416 l 3.581 -4.977 l 3.581 4.977 c 0.191 0.266 0.496 0.416 0.812 0.416 c 0.103 0 0.206 -0.016 0.307 -0.048 c 0.413 -0.133 0.693 -0.518 0.693 -0.952 V 26.77 C 60.389 26.217 59.941 25.77 59.389 25.77 z" style="stroke: none; stroke-width: 1; stroke-dasharray: none; stroke-linecap: butt; stroke-linejoin: miter; stroke-miterlimit: 10; fill: rgb(255,0,0); fill-rule: nonzero; opacity: 1;" transform=" matrix(1 0 0 1 0 0) " stroke-linecap="round" />
</g>
</g>
</svg>